<svg width="16" height="17" viewBox="0 0 16 17" fill="none" xmlns="http://www.w3.org/2000/svg">
<path id="Vector" fill-rule="evenodd" clip-rule="evenodd" d="M14 0.350098H2C0.897 0.350098 0 1.2471 0 2.3501V14.3501C0 15.4531 0.897 16.3501 2 16.3501H8V10.8501H6V8.3501H8V6.3501C8 5.55445 8.31607 4.79139 8.87868 4.22878C9.44129 3.66617 10.2044 3.3501 11 3.3501H13V5.8501H12C11.448 5.8501 11 5.7981 11 6.3501V8.3501H13.5L12.5 10.8501H11V16.3501H14C15.103 16.3501 16 15.4531 16 14.3501V2.3501C16 1.2471 15.103 0.350098 14 0.350098Z" fill="white"/>
</svg>
