<svg width="16" height="17" viewBox="0 0 16 17" fill="none" xmlns="http://www.w3.org/2000/svg">
<g id="Vector">
<path d="M8 1.79588C10.1205 1.79588 10.4096 1.79588 11.2771 1.79588C12.0482 1.79588 12.4337 1.98865 12.7229 2.08504C13.1084 2.27781 13.3976 2.37419 13.6867 2.66335C13.9759 2.95251 14.1687 3.24166 14.2651 3.62721C14.3614 3.91636 14.4578 4.30191 14.5542 5.07299C14.5542 5.94046 14.5542 6.13323 14.5542 8.3501C14.5542 10.567 14.5542 10.7597 14.5542 11.6272C14.5542 12.3983 14.3614 12.7838 14.2651 13.073C14.0723 13.4585 13.9759 13.7477 13.6867 14.0368C13.3976 14.326 13.1084 14.5188 12.7229 14.6152C12.4337 14.7115 12.0482 14.8079 11.2771 14.9043C10.4096 14.9043 10.2169 14.9043 8 14.9043C5.78313 14.9043 5.59036 14.9043 4.72289 14.9043C3.95181 14.9043 3.56627 14.7115 3.27711 14.6152C2.89157 14.4224 2.60241 14.326 2.31325 14.0368C2.0241 13.7477 1.83133 13.4585 1.73494 13.073C1.63855 12.7838 1.54217 12.3983 1.44578 11.6272C1.44578 10.7597 1.44578 10.567 1.44578 8.3501C1.44578 6.13323 1.44578 5.94046 1.44578 5.07299C1.44578 4.30191 1.63855 3.91636 1.73494 3.62721C1.92771 3.24166 2.0241 2.95251 2.31325 2.66335C2.60241 2.37419 2.89157 2.18142 3.27711 2.08504C3.56627 1.98865 3.95181 1.89227 4.72289 1.79588C5.59036 1.79588 5.87952 1.79588 8 1.79588ZM8 0.350098C5.78313 0.350098 5.59036 0.350098 4.72289 0.350098C3.85542 0.350098 3.27711 0.542869 2.79518 0.73564C2.31325 0.928411 1.83133 1.21757 1.3494 1.6995C0.867471 2.18142 0.674699 2.56697 0.385543 3.14528C0.192772 3.62721 0.0963856 4.20552 0 5.07299C0 5.94046 0 6.22962 0 8.3501C0 10.567 0 10.7597 0 11.6272C0 12.4947 0.192772 13.073 0.385543 13.5549C0.578314 14.0368 0.867471 14.5188 1.3494 15.0007C1.83133 15.4826 2.21687 15.6754 2.79518 15.9646C3.27711 16.1573 3.85542 16.2537 4.72289 16.3501C5.59036 16.3501 5.87952 16.3501 8 16.3501C10.1205 16.3501 10.4096 16.3501 11.2771 16.3501C12.1446 16.3501 12.7229 16.1573 13.2048 15.9646C13.6867 15.7718 14.1687 15.4826 14.6506 15.0007C15.1325 14.5188 15.3253 14.1332 15.6145 13.5549C15.8072 13.073 15.9036 12.4947 16 11.6272C16 10.7597 16 10.4706 16 8.3501C16 6.22962 16 5.94046 16 5.07299C16 4.20552 15.8072 3.62721 15.6145 3.14528C15.4217 2.66335 15.1325 2.18142 14.6506 1.6995C14.1687 1.21757 13.7831 1.0248 13.2048 0.73564C12.7229 0.542869 12.1446 0.446483 11.2771 0.350098C10.4096 0.350098 10.2169 0.350098 8 0.350098Z" fill="white"/>
<path d="M8 4.20552C5.68675 4.20552 3.85542 6.03685 3.85542 8.3501C3.85542 10.6634 5.68675 12.4947 8 12.4947C10.3133 12.4947 12.1446 10.6634 12.1446 8.3501C12.1446 6.03685 10.3133 4.20552 8 4.20552ZM8 11.0489C6.55422 11.0489 5.30121 9.89227 5.30121 8.3501C5.30121 6.90432 6.45783 5.6513 8 5.6513C9.44578 5.6513 10.6988 6.80793 10.6988 8.3501C10.6988 9.79588 9.44578 11.0489 8 11.0489Z" fill="white"/>
<path d="M12.241 5.07299C12.7733 5.07299 13.2048 4.64146 13.2048 4.10913C13.2048 3.57681 12.7733 3.14528 12.241 3.14528C11.7086 3.14528 11.2771 3.57681 11.2771 4.10913C11.2771 4.64146 11.7086 5.07299 12.241 5.07299Z" fill="white"/>
</g>
</svg>
