<svg width="126" height="65" viewBox="0 0 126 65" fill="none" xmlns="http://www.w3.org/2000/svg">
<path d="M64.6877 0.990067H67.0405V10.0585H74.1603V11.8221H64.6877V0.988077V0.990067Z" fill="#8E1730"/>
<path d="M74.2975 7.61428C74.2975 4.90529 76.3556 3.12583 79.1263 3.12583C81.897 3.12583 83.8934 4.82766 83.8934 7.70585V7.8611H76.5108C76.6044 9.51715 77.6255 10.4925 79.1263 10.4925C80.3325 10.4925 81.2162 9.85752 81.5865 8.71301H83.768C83.2724 10.7552 81.5387 12.057 79.1104 12.057C76.3098 12.057 74.2975 10.3074 74.2975 7.61428ZM76.6203 6.64096H81.6044C81.28 5.4029 80.3504 4.6744 79.1124 4.6744C77.8743 4.6744 76.9308 5.40091 76.6203 6.64096Z" fill="#8E1730"/>
<path d="M84.3572 9.62679C84.3572 7.69208 86.7099 7.30593 88.784 6.85609C90.1614 6.56151 90.9655 6.29877 90.9655 5.67974C90.9655 5.06071 90.3146 4.67457 89.1243 4.67457C87.7927 4.67457 86.9269 5.32544 86.6641 6.33062H84.5603C84.9325 4.47353 86.696 3.15784 89.1881 3.15784C91.6801 3.15784 93.1968 4.25657 93.1968 6.33062V11.8242H90.9834V10.7255C90.1793 11.5615 89.0188 11.9954 87.6713 11.9954C85.6291 11.9954 84.3592 11.052 84.3592 9.62679H84.3572ZM89.9902 1.37838C90.2848 1.37838 90.4858 1.1455 90.5634 0.697654H91.8334C91.71 1.91979 91.0133 2.60052 90.0698 2.60052C89.0009 2.60052 88.5371 1.85808 88.0117 1.85808C87.7032 1.85808 87.4862 2.1049 87.4086 2.60052H86.1387C86.2621 1.33061 86.9587 0.620026 87.9341 0.620026C88.9094 0.620026 89.4966 1.37838 89.9922 1.37838H89.9902ZM88.2107 10.5862C89.2318 10.5862 90.3465 10.2 90.9814 9.51931V7.50697C90.5177 7.84734 89.7752 8.00259 88.9531 8.1877C87.6534 8.48229 86.5547 8.69925 86.5547 9.56509C86.5547 10.216 87.1737 10.5862 88.2107 10.5862Z" fill="#8E1730"/>
<path d="M93.951 7.61428C93.951 4.87543 95.9932 3.12583 98.8734 3.12583C101.754 3.12583 103.81 4.87543 103.81 7.61428C103.81 10.3531 101.797 12.057 98.8734 12.057C95.9494 12.057 93.951 10.3074 93.951 7.61428ZM101.566 7.58443C101.566 5.77312 100.484 4.72018 98.8734 4.72018C97.2631 4.72018 96.1962 5.77312 96.1962 7.58443C96.1962 9.39574 97.295 10.4626 98.8734 10.4626C100.452 10.4626 101.566 9.40967 101.566 7.58443Z" fill="#8E1730"/>
<path d="M64.6576 15.827H68.0772L69.6257 19.8974L71.1265 23.9679L72.6432 19.8974L74.1759 15.827H77.5955V26.661H75.3523L75.3681 21.2907L75.398 18.0861L74.2216 21.2907L72.2412 26.661H69.9343L67.9537 21.2907L66.7774 18.0563L66.8092 21.2907L66.8252 26.661H64.6576V15.827Z" fill="#8E1730"/>
<path d="M78.3837 22.4512C78.3837 19.7124 80.4259 17.9628 83.3061 17.9628C86.1863 17.9628 88.2424 19.7124 88.2424 22.4512C88.2424 25.1901 86.2301 26.8939 83.3061 26.8939C80.3821 26.8939 78.3837 25.1443 78.3837 22.4512ZM85.9992 22.4194C85.9992 20.6081 84.9164 19.5551 83.3061 19.5551C81.6958 19.5551 80.629 20.6081 80.629 22.4194C80.629 24.2307 81.7277 25.2976 83.3061 25.2976C84.8845 25.2976 85.9992 24.2446 85.9992 22.4194Z" fill="#8E1730"/>
<path d="M89.0006 18.2094H91.2438V19.758C91.8947 18.6593 92.9158 18.0403 94.2932 18.0403C94.3867 18.0403 94.4325 18.0403 94.5102 18.0562V20.0068C94.2773 19.977 94.0464 19.961 93.8135 19.961C92.7307 19.961 91.7235 20.3949 91.2438 21.215V26.6629H89.0006V18.2134V18.2094Z" fill="#8E1730"/>
<path d="M94.6336 22.4512C94.6336 19.7422 96.6917 17.9628 99.4624 17.9628C102.233 17.9628 104.23 19.6646 104.23 22.5428V22.6981H96.847C96.9406 24.3541 97.9616 25.3294 99.4624 25.3294C100.669 25.3294 101.552 24.6945 101.923 23.55H104.104C103.609 25.5922 101.875 26.8939 99.4465 26.8939C96.646 26.8939 94.6336 25.1443 94.6336 22.4512ZM96.9545 21.4759H101.939C101.614 20.2379 100.685 19.5094 99.4465 19.5094C98.2085 19.5094 97.265 20.2359 96.9545 21.4759Z" fill="#8E1730"/>
<path d="M104.986 18.2095H107.229V19.3699C107.942 18.518 109.009 18.0244 110.295 18.0244C112.446 18.0244 113.901 19.34 113.901 21.3822V26.6609H111.656V21.7385C111.656 20.3611 110.774 19.6486 109.504 19.6486C108.545 19.6486 107.709 20.0825 107.229 20.7473V26.6589H104.986V18.2095Z" fill="#8E1730"/>
<path d="M114.628 22.4512C114.628 19.7124 116.67 17.9628 119.55 17.9628C122.43 17.9628 124.486 19.7124 124.486 22.4512C124.486 25.1901 122.474 26.8939 119.55 26.8939C116.626 26.8939 114.628 25.1443 114.628 22.4512ZM122.241 22.4194C122.241 20.6081 121.158 19.5551 119.548 19.5551C117.938 19.5551 116.871 20.6081 116.871 22.4194C116.871 24.2307 117.97 25.2976 119.548 25.2976C121.126 25.2976 122.241 24.2446 122.241 22.4194Z" fill="#8E1730"/>
<path d="M64.4706 38.0144H66.8532C67.1637 39.547 68.2763 40.2895 70.2429 40.2895C72.2095 40.2895 73.137 39.7023 73.137 38.8802C73.137 37.7974 71.6044 37.5347 69.8249 37.256C67.4265 36.8838 64.594 36.4818 64.594 34.0056C64.594 32.055 66.483 30.7393 69.5622 30.7393C72.8424 30.7393 74.9941 32.1625 75.3822 34.6545H73.1231C72.8126 33.2453 71.5447 32.4571 69.6259 32.4571C67.7071 32.4571 66.9646 33.0443 66.9646 33.8026C66.9646 34.9173 68.7143 35.1501 70.6331 35.4587C72.94 35.8309 75.4937 36.3245 75.4937 38.6772C75.4937 40.6577 73.5908 42.0052 70.3404 42.0052C67.09 42.0052 64.8926 40.5821 64.4746 38.0124L64.4706 38.0144Z" fill="#8E1730"/>
<path d="M76.1865 37.5805C76.1865 34.8257 78.2287 33.092 81.0471 33.092C83.569 33.092 85.4421 34.4993 85.7824 36.7763H83.6168C83.3541 35.4447 82.3788 34.6864 81.0471 34.6864C79.5145 34.6864 78.4317 35.7393 78.4317 37.5506C78.4317 39.3619 79.5145 40.4288 81.0471 40.4288C82.4086 40.4288 83.3998 39.6386 83.6307 38.2473H85.7824C85.4878 40.584 83.6467 42.0231 81.0471 42.0231C78.1988 42.0231 76.1865 40.3054 76.1865 37.5805Z" fill="#8E1730"/>
<path d="M86.5088 30.8945H88.752V32.6123H86.5088V30.8945ZM86.5088 33.3408H88.752V41.7902H86.5088V33.3408Z" fill="#8E1730"/>
<path d="M89.4625 38.8026H91.5983C91.8929 39.9332 92.8065 40.5204 94.152 40.5204C95.4976 40.5204 96.2102 40.0865 96.2102 39.4834C96.2102 38.6931 95.0656 38.4921 93.734 38.2911C91.8451 38.0124 89.57 37.7178 89.57 35.7533C89.57 34.2067 91.0867 33.106 93.5947 33.106C96.1027 33.106 97.8821 34.2206 98.316 36.1713H96.2261C95.8698 35.1044 94.988 34.6088 93.6106 34.6088C92.3726 34.6088 91.7535 35.0267 91.7535 35.5522C91.7535 36.2489 92.7587 36.4658 93.9828 36.6509C95.9016 36.9296 98.3937 37.1764 98.3937 39.2664C98.3937 40.8289 96.7993 42.0053 94.1998 42.0053C91.6003 42.0053 89.8825 40.9225 89.4645 38.8026H89.4625Z" fill="#8E1730"/>
<path d="M99.1663 30.8945H101.409V32.6123H99.1663V30.8945ZM99.1663 33.3408H101.409V41.7902H99.1663V33.3408Z" fill="#8E1730"/>
<path d="M102.371 33.3407H104.614V34.5012C105.326 33.6493 106.393 33.1556 107.679 33.1556C109.831 33.1556 111.286 34.4713 111.286 36.5135V41.7922H109.041V36.8698C109.041 35.4924 108.159 34.7798 106.889 34.7798C105.93 34.7798 105.094 35.2137 104.614 35.8786V41.7902H102.371V33.3407Z" fill="#8E1730"/>
<path d="M112.211 30.8945H114.455V32.6123H112.211V30.8945ZM112.211 33.3408H114.455V41.7902H112.211V33.3408Z" fill="#8E1730"/>
<path d="M115.213 37.5805C115.213 34.8416 117.255 33.092 120.135 33.092C123.016 33.092 125.072 34.8416 125.072 37.5805C125.072 40.3193 123.059 42.0231 120.135 42.0231C117.211 42.0231 115.213 40.2735 115.213 37.5805ZM122.829 37.5506C122.829 35.7393 121.746 34.6864 120.135 34.6864C118.525 34.6864 117.458 35.7393 117.458 37.5506C117.458 39.3619 118.557 40.4288 120.135 40.4288C121.714 40.4288 122.829 39.3758 122.829 37.5506Z" fill="#8E1730"/>
<path d="M72.2393 56.7666H69.5303L64.5005 45.9326H67.1159L69.0347 50.2817L70.9694 54.6308L72.8723 50.2817L74.807 45.9326H77.2831L72.2373 56.7666H72.2393Z" fill="#8E1730"/>
<path d="M77.717 45.8707H79.9602V47.5884H77.717V45.8707ZM77.717 48.3149H79.9602V56.7644H77.717V48.3149Z" fill="#8E1730"/>
<path d="M80.6867 54.567C80.6867 52.6322 83.0394 52.2461 85.1135 51.7963C86.4908 51.5017 87.295 51.2389 87.295 50.6199C87.295 50.0009 86.6441 49.6147 85.4538 49.6147C84.1222 49.6147 83.2563 50.2656 82.9936 51.2708H80.8897C81.2619 49.4137 83.0254 48.098 85.5175 48.098C88.0095 48.098 89.5263 49.1967 89.5263 51.2708V56.7644H87.3129V55.6657C86.5087 56.5017 85.3483 56.9356 84.0008 56.9356C81.9586 56.9356 80.6887 55.9921 80.6887 54.567H80.6867ZM84.5402 55.5264C85.5613 55.5264 86.6759 55.1402 87.3109 54.4595V52.4471C86.8471 52.7875 86.1047 52.9428 85.2826 53.1279C83.9829 53.4225 82.8841 53.6394 82.8841 54.5053C82.8841 55.1561 83.5032 55.5264 84.5402 55.5264Z" fill="#8E1730"/>
<path d="M90.4837 48.315H92.7269V49.4755C93.4395 48.6236 94.5064 48.1299 95.7922 48.1299C97.9439 48.1299 99.3989 49.4456 99.3989 51.4878V56.7665H97.1537V51.8441C97.1537 50.4667 96.2719 49.7541 95.002 49.7541C94.0426 49.7541 93.2066 50.1881 92.7269 50.8529V56.7645H90.4837V48.315Z" fill="#8E1730"/>
<path d="M100.324 48.315H102.568V49.4755C103.28 48.6236 104.347 48.1299 105.633 48.1299C107.785 48.1299 109.24 49.4456 109.24 51.4878V56.7665H106.994V51.8441C106.994 50.4667 106.113 49.7541 104.843 49.7541C103.883 49.7541 103.047 50.1881 102.568 50.8529V56.7645H100.324V48.315Z" fill="#8E1730"/>
<path d="M109.934 54.567C109.934 52.6322 112.287 52.2461 114.361 51.7963C115.739 51.5017 116.543 51.2389 116.543 50.6199C116.543 50.0009 115.892 49.6147 114.702 49.6147C113.37 49.6147 112.504 50.2656 112.241 51.2708H110.137C110.51 49.4137 112.273 48.098 114.765 48.098C117.257 48.098 118.774 49.1967 118.774 51.2708V56.7644H116.561V55.6657C115.757 56.5017 114.596 56.9356 113.249 56.9356C111.206 56.9356 109.936 55.9921 109.936 54.567H109.934ZM113.79 55.5264C114.811 55.5264 115.926 55.1402 116.561 54.4595V52.4471C116.097 52.7875 115.354 52.9428 114.532 53.1279C113.233 53.4225 112.134 53.6394 112.134 54.5053C112.134 55.1561 112.753 55.5264 113.79 55.5264Z" fill="#8E1730"/>
<path d="M66.8751 61.4956H67.3449L68.6685 64.33H68.2147L67.8863 63.5975H66.3158L65.9874 64.33H65.5535L66.8731 61.4956H66.8751ZM66.4492 63.297H67.7489L67.6553 63.086L67.1 61.844L66.5407 63.086L66.4472 63.297H66.4492Z" fill="#8E1730"/>
<path d="M72.0204 61.4956H73.2027C74.1183 61.4956 74.7413 62.0171 74.7413 62.9168C74.7413 63.8165 74.1143 64.33 73.1987 64.33H72.0204V61.4956ZM72.4304 61.8161V64.0135H73.1868C73.8794 64.0135 74.3293 63.6254 74.3293 62.9168C74.3293 62.2082 73.8794 61.8161 73.1868 61.8161H72.4304Z" fill="#8E1730"/>
<path d="M79.584 64.33H79.1102L77.7906 61.4956H78.2444L79.361 63.9578L79.9163 62.7277L80.4757 61.4976H80.9056L79.5859 64.332L79.584 64.33Z" fill="#8E1730"/>
<path d="M83.9529 62.9128C83.9529 61.9813 84.5998 61.4399 85.4676 61.4399C86.3355 61.4399 86.9824 61.9833 86.9824 62.9128C86.9824 63.8424 86.3395 64.3858 85.4676 64.3858C84.5958 64.3858 83.9529 63.8463 83.9529 62.9128ZM86.5684 62.9128C86.5684 62.1963 86.1145 61.7623 85.4676 61.7623C84.8207 61.7623 84.367 62.1963 84.367 62.9128C84.367 63.6294 84.8287 64.0633 85.4676 64.0633C86.1066 64.0633 86.5684 63.6294 86.5684 62.9128Z" fill="#8E1730"/>
<path d="M93.0175 63.7468C92.7906 64.1429 92.3825 64.3778 91.8431 64.3778C91.0091 64.3778 90.406 63.8443 90.406 62.9128C90.406 61.9813 91.033 61.4399 91.9088 61.4399C92.695 61.4399 93.2782 61.8738 93.3996 62.5983H92.9777C92.8762 62.0768 92.4562 61.7604 91.9088 61.7604C91.2619 61.7604 90.82 62.1982 90.82 62.9148C90.82 63.6314 91.2619 64.0653 91.9048 64.0653C92.4602 64.0653 92.8841 63.7369 92.9896 63.1955H91.9864V62.8869H93.3957V64.332H93.0195V63.7488L93.0175 63.7468Z" fill="#8E1730"/>
<path d="M98.0574 61.4956H98.5271L99.8508 64.33H99.397L99.0685 63.5975H97.4981L97.1697 64.33H96.7357L98.0554 61.4956H98.0574ZM97.6334 63.297H98.9332L98.8397 63.086L98.2843 61.844L97.725 63.086L97.6314 63.297H97.6334Z" fill="#8E1730"/>
<path d="M103.205 61.4956H104.387C105.303 61.4956 105.926 62.0171 105.926 62.9168C105.926 63.8165 105.299 64.33 104.383 64.33H103.205V61.4956ZM103.613 61.8161V64.0135H104.369C105.062 64.0135 105.512 63.6254 105.512 62.9168C105.512 62.2082 105.062 61.8161 104.369 61.8161H103.613Z" fill="#8E1730"/>
<path d="M109.349 62.9128C109.349 61.9813 109.996 61.4399 110.864 61.4399C111.732 61.4399 112.379 61.9833 112.379 62.9128C112.379 63.8424 111.736 64.3858 110.864 64.3858C109.992 64.3858 109.349 63.8463 109.349 62.9128ZM111.965 62.9128C111.965 62.1963 111.511 61.7623 110.864 61.7623C110.217 61.7623 109.763 62.1963 109.763 62.9128C109.763 63.6294 110.225 64.0633 110.864 64.0633C111.503 64.0633 111.965 63.6294 111.965 62.9128Z" fill="#8E1730"/>
<path d="M115.742 63.3327H116.158C116.256 63.8264 116.592 64.0692 117.169 64.0692C117.713 64.0692 118.011 63.8741 118.011 63.5915C118.011 63.2113 117.502 63.1377 116.97 63.0481C116.391 62.9466 115.784 62.8212 115.784 62.2539C115.784 61.7881 116.234 61.4438 116.982 61.4438C117.781 61.4438 118.298 61.812 118.416 62.4689H118.019C117.922 62.0071 117.554 61.7523 116.99 61.7523C116.477 61.7523 116.192 61.9474 116.192 62.2141C116.192 62.5784 116.686 62.652 117.209 62.7436C117.797 62.8491 118.419 62.9705 118.419 63.5457C118.419 64.0393 117.966 64.3757 117.177 64.3757C116.389 64.3757 115.862 64.0115 115.74 63.3307L115.742 63.3327Z" fill="#8E1730"/>
<path d="M0.0498047 1.02394V56.852H55.1095V1.02394H0.0498047ZM38.5192 6.33644H44.379V26.0757H38.5192V6.33644ZM28.6545 6.33644L36.264 20.4606C36.264 20.4606 34.1442 24.1012 32.9499 26.1155C29.3671 19.4953 25.8997 12.9786 22.305 6.33644H28.6545ZM9.73931 6.33644H15.5713V26.0757H9.73931V6.33644ZM12.9001 51.7286C10.9117 51.7544 9.33523 50.2158 9.32129 48.2353C9.30736 46.3165 10.838 44.7501 12.7608 44.7162C14.7512 44.6824 16.3197 46.215 16.3297 48.2075C16.3396 50.1481 14.8249 51.7027 12.9001 51.7286ZM22.3408 50.1103C21.3993 50.9503 20.1593 51.4598 18.7978 51.4598C19.8348 51.4598 20.6748 50.6199 20.6748 49.5828C20.6748 49.0355 20.4399 48.5458 20.0657 48.2015C20.0239 48.1637 11.5645 41.0837 11.4073 40.9364C10.3782 39.965 9.73731 38.5896 9.73731 37.0649C9.73731 35.5403 10.426 34.0653 11.5207 33.09C12.4622 32.2501 13.7023 31.7405 15.0637 31.7405C14.0267 31.7405 13.1867 32.5805 13.1867 33.6175C13.1867 34.1649 13.4216 34.6545 13.7958 34.9989C13.8376 35.0367 22.297 42.1167 22.4543 42.264C23.4833 43.2353 24.1242 44.6107 24.1242 46.1354C24.1242 47.6601 23.4355 49.135 22.3408 50.1103ZM17.0641 31.7067H23.0693V36.7146L17.0641 31.7067ZM22.5876 25.9841C20.5992 26.01 19.0227 24.4714 19.0088 22.4909C18.9949 20.5721 20.5255 19.0056 22.4483 18.9718C24.4387 18.9379 26.0072 20.4706 26.0172 22.463C26.0271 24.4037 24.5124 25.9583 22.5876 25.9841ZM37.6892 51.5415C34.1063 44.9212 30.639 38.4045 27.0443 31.7624H33.3938L41.0032 45.8866C41.0032 45.8866 38.8834 49.5271 37.6892 51.5415ZM41.9089 38.8006C39.9344 38.7946 38.3639 37.2023 38.3898 35.2337C38.4157 33.3149 39.9702 31.7743 41.8949 31.7644C43.8436 31.7524 45.4359 33.3667 45.42 35.3333C45.4041 37.2421 43.8197 38.8066 41.9089 38.8006Z" fill="#8E1730"/>
</svg>
