<svg width="249" height="128" viewBox="0 0 249 128" fill="none" xmlns="http://www.w3.org/2000/svg">
<path d="M128.841 1.68022H133.508V19.6721H147.634V23.1709H128.841V1.67627V1.68022Z" fill="white"/>
<path d="M147.906 14.8226C147.906 9.44793 151.99 5.91748 157.487 5.91748C162.984 5.91748 166.945 9.29392 166.945 15.0042V15.3123H152.298C152.483 18.5979 154.509 20.5329 157.487 20.5329C159.88 20.5329 161.633 19.2732 162.368 17.0025H166.696C165.713 21.0542 162.273 23.6368 157.455 23.6368C151.899 23.6368 147.906 20.1656 147.906 14.8226ZM152.515 12.8915H162.403C161.76 10.4352 159.916 8.98984 157.459 8.98984C155.003 8.98984 153.131 10.4312 152.515 12.8915Z" fill="white"/>
<path d="M167.865 18.8157C167.865 14.9772 172.533 14.2111 176.648 13.3186C179.381 12.7342 180.976 12.2129 180.976 10.9848C180.976 9.75661 179.685 8.9905 177.323 8.9905C174.681 8.9905 172.963 10.2818 172.442 12.2761H168.268C169.006 8.59164 172.505 5.98132 177.449 5.98132C182.394 5.98132 185.403 8.16119 185.403 12.2761V23.1755H181.011V20.9956C179.416 22.6542 177.114 23.5151 174.44 23.5151C170.389 23.5151 167.869 21.6432 167.869 18.8157H167.865ZM179.041 2.45087C179.625 2.45087 180.024 1.98884 180.178 1.1003H182.698C182.453 3.52502 181.071 4.87559 179.199 4.87559C177.078 4.87559 176.158 3.4026 175.116 3.4026C174.503 3.4026 174.073 3.89227 173.919 4.87559H171.399C171.644 2.3561 173.027 0.946289 174.962 0.946289C176.897 0.946289 178.062 2.45087 179.045 2.45087H179.041ZM175.51 20.7192C177.536 20.7192 179.748 19.953 181.008 18.6025V14.61C180.087 15.2853 178.614 15.5933 176.983 15.9606C174.405 16.545 172.225 16.9755 172.225 18.6933C172.225 19.9846 173.453 20.7192 175.51 20.7192Z" fill="white"/>
<path d="M186.899 14.8226C186.899 9.38869 190.951 5.91748 196.665 5.91748C202.379 5.91748 206.459 9.38869 206.459 14.8226C206.459 20.2565 202.466 23.6368 196.665 23.6368C190.864 23.6368 186.899 20.1656 186.899 14.8226ZM202.008 14.7633C202.008 11.1697 199.86 9.08067 196.665 9.08067C193.47 9.08067 191.354 11.1697 191.354 14.7633C191.354 18.357 193.534 20.4737 196.665 20.4737C199.797 20.4737 202.008 18.3846 202.008 14.7633Z" fill="white"/>
<path d="M128.781 31.1167H135.565L138.638 39.1925L141.615 47.2683L144.624 39.1925L147.665 31.1167H154.45V52.6114H149.999L150.031 41.9568L150.09 35.5989L147.756 41.9568L143.827 52.6114H139.25L135.32 41.9568L132.987 35.5396L133.05 41.9568L133.081 52.6114H128.781V31.1167Z" fill="white"/>
<path d="M156.014 44.2596C156.014 38.8257 160.065 35.3545 165.78 35.3545C171.494 35.3545 175.573 38.8257 175.573 44.2596C175.573 49.6935 171.581 53.0739 165.78 53.0739C159.979 53.0739 156.014 49.6026 156.014 44.2596ZM171.123 44.1964C171.123 40.6028 168.974 38.5137 165.78 38.5137C162.585 38.5137 160.468 40.6028 160.468 44.1964C160.468 47.79 162.648 49.9067 165.78 49.9067C168.911 49.9067 171.123 47.8177 171.123 44.1964Z" fill="white"/>
<path d="M177.078 35.8435H181.528V38.9158C182.82 36.736 184.845 35.5078 187.578 35.5078C187.764 35.5078 187.855 35.5078 188.009 35.5394V39.4095C187.547 39.3502 187.089 39.3186 186.626 39.3186C184.478 39.3186 182.48 40.1795 181.528 41.8065V52.6151H177.078V35.8514V35.8435Z" fill="white"/>
<path d="M188.253 44.2596C188.253 38.8849 192.337 35.3545 197.834 35.3545C203.331 35.3545 207.292 38.7309 207.292 44.4412V44.7493H192.645C192.83 48.0349 194.856 49.9699 197.834 49.9699C200.227 49.9699 201.98 48.7102 202.715 46.4395H207.043C206.06 50.4912 202.62 53.0739 197.802 53.0739C192.246 53.0739 188.253 49.6026 188.253 44.2596ZM192.858 42.3246H202.746C202.103 39.8682 200.259 38.4229 197.802 38.4229C195.346 38.4229 193.474 39.8643 192.858 42.3246Z" fill="white"/>
<path d="M208.792 35.8438H213.243V38.1461C214.657 36.4559 216.774 35.4766 219.325 35.4766C223.594 35.4766 226.48 38.0869 226.48 42.1386V52.6115H222.026V42.8455C222.026 40.1127 220.276 38.699 217.757 38.699C215.853 38.699 214.195 39.5599 213.243 40.8789V52.6075H208.792V35.8438Z" fill="white"/>
<path d="M227.922 44.2596C227.922 38.8257 231.973 35.3545 237.688 35.3545C243.402 35.3545 247.481 38.8257 247.481 44.2596C247.481 49.6935 243.489 53.0739 237.688 53.0739C231.886 53.0739 227.922 49.6026 227.922 44.2596ZM243.027 44.1964C243.027 40.6028 240.878 38.5137 237.684 38.5137C234.489 38.5137 232.372 40.6028 232.372 44.1964C232.372 47.79 234.552 49.9067 237.684 49.9067C240.815 49.9067 243.027 47.8177 243.027 44.1964Z" fill="white"/>
<path d="M128.41 75.1369H133.137C133.753 78.1776 135.96 79.6506 139.862 79.6506C143.764 79.6506 145.604 78.4857 145.604 76.8547C145.604 74.7064 142.563 74.1852 139.033 73.6323C134.274 72.8938 128.655 72.0961 128.655 67.1835C128.655 63.3134 132.402 60.7031 138.512 60.7031C145.02 60.7031 149.289 63.5267 150.059 68.4709H145.576C144.96 65.675 142.445 64.1112 138.638 64.1112C134.831 64.1112 133.358 65.2761 133.358 66.7807C133.358 68.9922 136.829 69.4542 140.636 70.0663C145.213 70.8048 150.28 71.7841 150.28 76.4519C150.28 80.3812 146.504 83.0547 140.056 83.0547C133.607 83.0547 129.247 80.2312 128.418 75.1329L128.41 75.1369Z" fill="white"/>
<path d="M151.654 74.2757C151.654 68.8102 155.706 65.3706 161.298 65.3706C166.301 65.3706 170.017 68.1626 170.693 72.6803H166.396C165.875 70.0384 163.94 68.5338 161.298 68.5338C158.257 68.5338 156.109 70.6228 156.109 74.2165C156.109 77.8101 158.257 79.9268 161.298 79.9268C163.999 79.9268 165.966 78.359 166.424 75.5986H170.693C170.108 80.2348 166.455 83.09 161.298 83.09C155.647 83.09 151.654 79.6819 151.654 74.2757Z" fill="white"/>
<path d="M172.134 61.0112H176.584V64.4193H172.134V61.0112ZM172.134 65.8646H176.584V82.6283H172.134V65.8646Z" fill="white"/>
<path d="M177.994 76.7006H182.231C182.816 78.9437 184.628 80.1086 187.298 80.1086C189.968 80.1086 191.381 79.2477 191.381 78.0512C191.381 76.4834 189.111 76.0846 186.469 75.6857C182.721 75.1328 178.207 74.5484 178.207 70.6507C178.207 67.5823 181.216 65.3984 186.192 65.3984C191.168 65.3984 194.698 67.6099 195.559 71.48H191.413C190.706 69.3633 188.957 68.38 186.224 68.38C183.768 68.38 182.539 69.2093 182.539 70.2518C182.539 71.634 184.534 72.0644 186.962 72.4317C190.769 72.9846 195.713 73.4742 195.713 77.6207C195.713 80.7207 192.55 83.0546 187.393 83.0546C182.235 83.0546 178.827 80.9063 177.998 76.7006H177.994Z" fill="white"/>
<path d="M197.246 61.0112H201.697V64.4193H197.246V61.0112ZM197.246 65.8646H201.697V82.6283H197.246V65.8646Z" fill="white"/>
<path d="M203.604 65.8643H208.054V68.1666C209.468 66.4764 211.585 65.4971 214.136 65.4971C218.405 65.4971 221.291 68.1074 221.291 72.1591V82.632H216.837V72.866C216.837 70.1333 215.087 68.7195 212.568 68.7195C210.665 68.7195 209.006 69.5804 208.054 70.8994V82.628H203.604V65.8643Z" fill="white"/>
<path d="M223.128 61.0112H227.578V64.4193H223.128V61.0112ZM223.128 65.8646H227.578V82.6283H223.128V65.8646Z" fill="white"/>
<path d="M229.083 74.2757C229.083 68.8418 233.135 65.3706 238.849 65.3706C244.563 65.3706 248.643 68.8418 248.643 74.2757C248.643 79.7096 244.65 83.09 238.849 83.09C233.048 83.09 229.083 79.6188 229.083 74.2757ZM244.192 74.2165C244.192 70.6228 242.044 68.5338 238.849 68.5338C235.654 68.5338 233.538 70.6228 233.538 74.2165C233.538 77.8101 235.718 79.9268 238.849 79.9268C241.981 79.9268 244.192 77.8377 244.192 74.2165Z" fill="white"/>
<path d="M143.823 112.341H138.449L128.469 90.8462H133.658L137.465 99.4749L141.304 108.104L145.079 99.4749L148.918 90.8462H153.83L143.819 112.341H143.823Z" fill="white"/>
<path d="M154.691 90.7231H159.141V94.1312H154.691V90.7231ZM154.691 95.5726H159.141V112.336H154.691V95.5726Z" fill="white"/>
<path d="M160.583 107.977C160.583 104.139 165.251 103.372 169.365 102.48C172.098 101.895 173.694 101.374 173.694 100.146C173.694 98.9179 172.402 98.1517 170.041 98.1517C167.399 98.1517 165.681 99.4431 165.16 101.437H160.985C161.724 97.7529 165.223 95.1426 170.167 95.1426C175.111 95.1426 178.12 97.3225 178.12 101.437V112.337H173.729V110.157C172.134 111.815 169.831 112.676 167.158 112.676C163.106 112.676 160.587 110.804 160.587 107.977H160.583ZM168.228 109.88C170.254 109.88 172.465 109.114 173.725 107.764V103.771C172.805 104.447 171.332 104.755 169.701 105.122C167.122 105.706 164.942 106.137 164.942 107.855C164.942 109.146 166.171 109.88 168.228 109.88Z" fill="white"/>
<path d="M180.02 95.5728H184.471V97.8751C185.884 96.1849 188.001 95.2056 190.552 95.2056C194.821 95.2056 197.708 97.8159 197.708 101.868V112.34H193.253V102.574C193.253 99.8417 191.504 98.428 188.984 98.428C187.081 98.428 185.422 99.2889 184.471 100.608V112.337H180.02V95.5728Z" fill="white"/>
<path d="M199.544 95.5728H203.995V97.8751C205.408 96.1849 207.525 95.2056 210.076 95.2056C214.345 95.2056 217.232 97.8159 217.232 101.868V112.34H212.777V102.574C212.777 99.8417 211.028 98.428 208.508 98.428C206.605 98.428 204.946 99.2889 203.995 100.608V112.337H199.544V95.5728Z" fill="white"/>
<path d="M218.61 107.977C218.61 104.139 223.278 103.372 227.393 102.48C230.126 101.895 231.721 101.374 231.721 100.146C231.721 98.9179 230.43 98.1517 228.068 98.1517C225.426 98.1517 223.709 99.4431 223.187 101.437H219.013C219.752 97.7529 223.25 95.1426 228.195 95.1426C233.139 95.1426 236.148 97.3225 236.148 101.437V112.337H231.757V110.157C230.161 111.815 227.859 112.676 225.185 112.676C221.134 112.676 218.614 110.804 218.614 107.977H218.61ZM226.26 109.88C228.285 109.88 230.497 109.114 231.757 107.764V103.771C230.837 104.447 229.364 104.755 227.733 105.122C225.154 105.706 222.974 106.137 222.974 107.855C222.974 109.146 224.202 109.88 226.26 109.88Z" fill="white"/>
<path d="M133.18 121.723H134.112L136.738 127.347H135.838L135.186 125.893H132.071L131.419 127.347H130.558L133.176 121.723H133.18ZM132.335 125.297H134.914L134.728 124.878L133.627 122.414L132.517 124.878L132.331 125.297H132.335Z" fill="white"/>
<path d="M143.389 121.723H145.734C147.551 121.723 148.787 122.758 148.787 124.543C148.787 126.328 147.543 127.347 145.726 127.347H143.389V121.723ZM144.202 122.359V126.719H145.703C147.077 126.719 147.97 125.949 147.97 124.543C147.97 123.137 147.077 122.359 145.703 122.359H144.202Z" fill="white"/>
<path d="M158.395 127.347H157.455L154.837 121.723H155.737L157.952 126.608L159.054 124.168L160.164 121.727H161.017L158.399 127.351L158.395 127.347Z" fill="white"/>
<path d="M167.063 124.535C167.063 122.687 168.346 121.613 170.068 121.613C171.79 121.613 173.073 122.691 173.073 124.535C173.073 126.379 171.798 127.457 170.068 127.457C168.338 127.457 167.063 126.387 167.063 124.535ZM172.252 124.535C172.252 123.113 171.351 122.253 170.068 122.253C168.785 122.253 167.884 123.113 167.884 124.535C167.884 125.957 168.8 126.818 170.068 126.818C171.336 126.818 172.252 125.957 172.252 124.535Z" fill="white"/>
<path d="M185.047 126.19C184.597 126.976 183.787 127.442 182.717 127.442C181.062 127.442 179.866 126.383 179.866 124.535C179.866 122.687 181.11 121.613 182.847 121.613C184.407 121.613 185.564 122.474 185.805 123.911H184.968C184.767 122.876 183.933 122.249 182.847 122.249C181.564 122.249 180.687 123.117 180.687 124.539C180.687 125.961 181.564 126.822 182.839 126.822C183.941 126.822 184.782 126.17 184.992 125.096H183.001V124.484H185.797V127.351H185.051V126.194L185.047 126.19Z" fill="white"/>
<path d="M195.046 121.723H195.978L198.604 127.347H197.704L197.052 125.893H193.936L193.285 127.347H192.424L195.042 121.723H195.046ZM194.205 125.297H196.784L196.598 124.878L195.496 122.414L194.386 124.878L194.201 125.297H194.205Z" fill="white"/>
<path d="M205.258 121.723H207.604C209.42 121.723 210.656 122.758 210.656 124.543C210.656 126.328 209.412 127.347 207.596 127.347H205.258V121.723ZM206.068 122.359V126.719H207.568C208.943 126.719 209.835 125.949 209.835 124.543C209.835 123.137 208.943 122.359 207.568 122.359H206.068Z" fill="white"/>
<path d="M217.449 124.535C217.449 122.687 218.732 121.613 220.454 121.613C222.176 121.613 223.459 122.691 223.459 124.535C223.459 126.379 222.184 127.457 220.454 127.457C218.724 127.457 217.449 126.387 217.449 124.535ZM222.638 124.535C222.638 123.113 221.738 122.253 220.454 122.253C219.171 122.253 218.27 123.113 218.27 124.535C218.27 125.957 219.187 126.818 220.454 126.818C221.722 126.818 222.638 125.957 222.638 124.535Z" fill="white"/>
<path d="M230.133 125.368H230.958C231.152 126.348 231.819 126.829 232.964 126.829C234.043 126.829 234.635 126.442 234.635 125.882C234.635 125.127 233.624 124.981 232.57 124.804C231.42 124.602 230.216 124.353 230.216 123.228C230.216 122.304 231.108 121.621 232.593 121.621C234.177 121.621 235.204 122.351 235.437 123.654H234.651C234.457 122.738 233.727 122.233 232.609 122.233C231.59 122.233 231.025 122.62 231.025 123.149C231.025 123.872 232.005 124.018 233.043 124.199C234.208 124.409 235.444 124.65 235.444 125.791C235.444 126.77 234.544 127.438 232.98 127.438C231.416 127.438 230.37 126.715 230.129 125.364L230.133 125.368Z" fill="white"/>
<path d="M0.598755 1.74756V112.51H109.837V1.74756H0.598755ZM76.9219 12.2876H88.5479V51.4502H76.9219V12.2876ZM57.3505 12.2876L72.4476 40.31C72.4476 40.31 68.242 47.5328 65.8725 51.5292C58.7642 38.3947 51.885 25.4655 44.753 12.2876H57.3505ZM19.8227 12.2876H31.3934V51.4502H19.8227V12.2876ZM26.0938 102.346C22.1487 102.397 19.021 99.3442 18.9934 95.4149C18.9657 91.6081 22.0026 88.5002 25.8173 88.433C29.7664 88.3659 32.8783 91.4067 32.898 95.3597C32.9177 99.21 29.9125 102.294 26.0938 102.346ZM44.8241 99.135C42.9562 100.801 40.4959 101.812 37.7948 101.812C39.8522 101.812 41.5187 100.146 41.5187 98.0884C41.5187 97.0025 41.0528 96.031 40.3104 95.3478C40.2274 95.2728 23.444 81.226 23.132 80.9338C21.0904 79.0067 19.8188 76.2779 19.8188 73.2529C19.8188 70.2279 21.1851 67.3017 23.3571 65.3667C25.225 63.7002 27.6853 62.6892 30.3864 62.6892C28.329 62.6892 26.6624 64.3557 26.6624 66.4132C26.6624 67.4992 27.1285 68.4706 27.8709 69.1538C27.9538 69.2288 44.7372 83.2756 45.0492 83.5678C47.0909 85.4949 48.3624 88.2237 48.3624 91.2487C48.3624 94.2737 46.9961 97.1999 44.8241 99.135ZM34.3552 62.6221H46.2694V72.5579L34.3552 62.6221ZM45.3138 51.2686C41.3687 51.3199 38.241 48.2673 38.2134 44.338C38.1858 40.5311 41.2226 37.4232 45.0374 37.3561C48.9864 37.289 52.0982 40.3297 52.118 44.2827C52.1377 48.133 49.1325 51.2172 45.3138 51.2686ZM75.2752 101.974C68.1669 88.8398 61.2877 75.9106 54.1557 62.7327H66.7532L81.8503 90.7551C81.8503 90.7551 77.6446 97.9779 75.2752 101.974ZM83.6472 76.6965C79.7297 76.6846 76.614 73.5254 76.6653 69.6198C76.7166 65.8129 79.8008 62.7564 83.6195 62.7366C87.4856 62.7129 90.6448 65.9156 90.6133 69.8172C90.5817 73.6044 87.4383 76.7083 83.6472 76.6965Z" fill="white"/>
</svg>
