<svg width="24" height="25" viewBox="0 0 24 25" fill="none" xmlns="http://www.w3.org/2000/svg">
<g id="Frame">
<path id="Vector" d="M6.15791 4.5H17.8422C19.034 4.5 20.0001 5.46612 20.0001 6.65789V10.1131C19.8226 10.1579 19.653 10.2175 19.5077 10.2906C19.1077 10.4758 18.7549 10.7528 18.4614 11.1162C17.9888 11.7018 17.7026 12.4931 17.633 13.3824C17.6181 13.559 17.6132 13.7366 17.6164 13.9138C17.6574 15.6766 18.4959 17.1295 20.0001 17.4647V18.3421C20.0001 19.5339 19.034 20.5 17.8422 20.5H6.15791C4.96613 20.5 4.00001 19.5339 4.00001 18.3421V6.65789C4.00001 5.46612 4.96613 4.5 6.15791 4.5ZM21.0001 6.65789C21.0001 4.91384 19.5863 3.5 17.8422 3.5H6.15791C4.41385 3.5 3 4.91384 3 6.65789V18.3421C3 20.0862 4.41385 21.5 6.15791 21.5H17.8422C19.5863 21.5 21.0001 20.0862 21.0001 18.3421V6.65789ZM20.0001 10.798V12.7813H19.3839C19.4227 11.9139 19.6365 11.2014 20.0001 10.798ZM20.0001 13.1621V15.2252C19.5588 14.7117 19.3013 13.9758 19.3474 13.1621H20.0001ZM17.6974 7.80004L17.7116 7.79693V7.68701H14.8128L12.1212 14.0132L9.42956 7.68701H6.30575V7.79693L6.31977 7.80004C6.84888 7.91946 7.11751 8.09757 7.11751 8.73987V16.2595C7.11751 16.9018 6.84784 17.0799 6.31874 17.1993L6.30471 17.2024V17.3127H8.42412V17.2028L8.41011 17.1996C7.88098 17.0802 7.61235 16.9021 7.61235 16.2598V9.17605L11.07 17.3127H11.2661L14.8246 8.94914V16.4455C14.7792 16.9528 14.513 17.1095 14.0339 17.2176L14.0197 17.2209V17.33H17.7116V17.2209L17.6974 17.2176C17.2178 17.1095 16.9452 16.9528 16.8999 16.4455L16.8974 8.73987H16.8999C16.8999 8.09757 17.1685 7.91946 17.6974 7.80004Z" fill="white"/>
</g>
</svg>
