<svg width="20" height="17" viewBox="0 0 20 17" fill="none" xmlns="http://www.w3.org/2000/svg">
<path id="Vector" d="M19.5 2.21054C18.8452 2.65793 18.0764 2.8955 17.2907 2.89325C18.1308 2.3835 18.7597 1.57363 19.0581 0.617535C18.3618 1.22391 17.4843 1.56537 16.5727 1.58471C15.9716 0.950605 15.1871 0.534388 14.3369 0.398525C13.4867 0.262662 12.6167 0.414481 11.8574 0.831199C11.098 1.24792 10.4904 1.90706 10.1256 2.7097C9.76086 3.51234 9.65864 4.41519 9.8343 5.28275C8.28743 5.19863 6.77502 4.78033 5.39528 4.05502C4.01554 3.32971 2.79932 2.31361 1.82558 1.07268C1.34909 1.9608 1.20958 2.99948 1.43407 3.9875C1.65856 4.97552 2.23108 5.84254 3.0407 6.42061C2.42967 6.4295 1.82487 6.29323 1.27326 6.02236C1.28811 6.93881 1.60093 7.82365 2.16167 8.53533C2.72241 9.24701 3.49867 9.74441 4.36628 9.94797C3.78874 10.1033 3.18466 10.1228 2.59884 10.0049C2.85155 10.8167 3.34391 11.5272 4.00726 12.0371C4.67062 12.547 5.4719 12.831 6.29942 12.8495C4.55172 13.9416 2.5441 14.5127 0.5 14.4994C2.21195 15.6506 4.20048 16.2899 6.24424 16.3461C8.28799 16.4022 10.3068 15.873 12.0759 14.8174C13.8449 13.7618 15.2949 12.2211 16.2644 10.367C17.2338 8.51289 17.6847 6.41801 17.5669 4.31557C18.2957 3.70162 18.9453 2.99421 19.5 2.21054Z" fill="white"/>
</svg>
