<svg width="24" height="25" viewBox="0 0 24 25" fill="none" xmlns="http://www.w3.org/2000/svg">
<g id="Frame">
<path id="Vector" d="M17 10.0501L22.2133 6.40081C22.4395 6.24245 22.7513 6.29747 22.9096 6.5237C22.9684 6.60774 23 6.70784 23 6.81043V18.8898C23 19.1659 22.7761 19.3898 22.5 19.3898C22.3974 19.3898 22.2973 19.3582 22.2133 19.2994L17 15.6501V19.8501C17 20.4024 16.5523 20.8501 16 20.8501H2C1.44772 20.8501 1 20.4024 1 19.8501V5.8501C1 5.29782 1.44772 4.8501 2 4.8501H16C16.5523 4.8501 17 5.29782 17 5.8501V10.0501ZM17 13.2088L21 16.0088V9.69141L17 12.4914V13.2088ZM3 6.8501V18.8501H15V6.8501H3ZM5 8.8501H7V10.8501H5V8.8501Z" fill="white"/>
</g>
</svg>
