<svg width="22" height="17" viewBox="0 0 22 17" fill="none" xmlns="http://www.w3.org/2000/svg">
<path id="Vector" d="M21.45 2.77867C21.175 1.77867 20.4875 1.06438 19.525 0.778669C17.875 0.350098 10.8625 0.350098 10.8625 0.350098C10.8625 0.350098 3.98751 0.350098 2.20001 0.778669C1.23751 1.06438 0.549996 1.77867 0.274996 2.77867C-4.20026e-06 4.63581 0 8.3501 0 8.3501C0 8.3501 4.17978e-06 12.0644 0.412504 13.9215C0.687504 14.9215 1.375 15.6358 2.3375 15.9215C3.9875 16.3501 11 16.3501 11 16.3501C11 16.3501 17.875 16.3501 19.6625 15.9215C20.625 15.6358 21.3125 14.9215 21.5875 13.9215C22 12.0644 22 8.3501 22 8.3501C22 8.3501 22 4.63581 21.45 2.77867ZM8.79999 11.7787V4.92153L14.575 8.3501L8.79999 11.7787Z" fill="white"/>
</svg>
