<svg width="24" height="25" viewBox="0 0 24 25" fill="none" xmlns="http://www.w3.org/2000/svg">
<g id="Frame">
<path id="Vector" d="M7.25361 19.3445L7.97834 19.7671C9.18909 20.4731 10.5651 20.8501 12.001 20.8501C16.4193 20.8501 20.001 17.2684 20.001 12.8501C20.001 8.43182 16.4193 4.8501 12.001 4.8501C7.5827 4.8501 4.00098 8.43182 4.00098 12.8501C4.00098 14.2864 4.37821 15.6629 5.08466 16.8739L5.50704 17.5979L4.85355 19.9995L7.25361 19.3445ZM2.00516 22.8501L3.35712 17.8816C2.49494 16.4037 2.00098 14.6846 2.00098 12.8501C2.00098 7.32725 6.47813 2.8501 12.001 2.8501C17.5238 2.8501 22.001 7.32725 22.001 12.8501C22.001 18.3729 17.5238 22.8501 12.001 22.8501C10.1671 22.8501 8.44851 22.3565 6.97086 21.4948L2.00516 22.8501ZM8.39232 8.15843C8.5262 8.14902 8.66053 8.14758 8.79459 8.15412C8.84875 8.15768 8.90265 8.16394 8.95659 8.17017C9.11585 8.18856 9.29098 8.28555 9.34986 8.41904C9.64818 9.09546 9.93764 9.77575 10.2182 10.4597C10.2801 10.6107 10.2428 10.8064 10.125 10.9958C10.0652 11.0929 9.97128 11.2291 9.86248 11.3684C9.74939 11.5131 9.50599 11.7792 9.50599 11.7792C9.50599 11.7792 9.40738 11.8974 9.44455 12.0445C9.45903 12.1001 9.50521 12.1811 9.54708 12.2492C9.57027 12.2869 9.5918 12.3206 9.60577 12.3439C9.86169 12.7712 10.2057 13.2044 10.6259 13.6117C10.7463 13.7284 10.8631 13.8475 10.9887 13.9581C11.457 14.371 11.9868 14.7084 12.559 14.9583L12.5641 14.9606C12.6486 14.997 12.692 15.0169 12.8157 15.0694C12.8781 15.0958 12.9419 15.1186 13.0074 15.1359C13.0311 15.1421 13.0554 15.1456 13.0798 15.1473C13.2415 15.157 13.335 15.0533 13.3749 15.0056C14.0984 14.1291 14.1646 14.0719 14.1696 14.0723V14.0739C14.2647 13.9737 14.4142 13.9389 14.5476 13.9471C14.6085 13.9508 14.6691 13.9625 14.7245 13.9878C15.2563 14.2304 16.1258 14.6088 16.1258 14.6088L16.7073 14.8702C16.8047 14.9172 16.8936 15.0279 16.8979 15.1355C16.9005 15.2024 16.9077 15.3104 16.8838 15.508C16.8525 15.7667 16.7738 16.0782 16.6956 16.2414C16.6406 16.3559 16.5694 16.4575 16.4866 16.5435C16.3743 16.6601 16.2909 16.7309 16.1559 16.8315C16.0737 16.8927 16.0311 16.9215 16.0311 16.9215C15.8922 17.0091 15.8139 17.0529 15.6484 17.141C15.391 17.2781 15.1066 17.3569 14.8153 17.3719C14.6296 17.3814 14.4444 17.3948 14.2589 17.3848C14.2507 17.3843 13.6907 17.2983 13.6907 17.2983C12.2688 16.9243 10.9538 16.2237 9.85034 15.2521C9.62473 15.0535 9.4155 14.8386 9.20194 14.626C8.31288 13.7409 7.63982 12.7865 7.23169 11.8837C7.03043 11.4385 6.90299 10.9617 6.90098 10.4711C6.89729 9.86415 7.09599 9.2733 7.46569 8.79196C7.53857 8.69707 7.60774 8.59865 7.72709 8.48596C7.85348 8.36661 7.93392 8.30254 8.02057 8.25821C8.13607 8.19912 8.26293 8.16752 8.39232 8.15843Z" fill="white"/>
</g>
</svg>
