<svg width="40" height="40" viewBox="0 0 40 40" fill="none" xmlns="http://www.w3.org/2000/svg">
<g id="Frame">
<path id="Vector" d="M11.6668 8.33341V3.33341C11.6668 2.41295 12.413 1.66675 13.3335 1.66675H26.6668C27.5873 1.66675 28.3335 2.41295 28.3335 3.33341V8.33341H35.0002C35.9207 8.33341 36.6668 9.07961 36.6668 10.0001V33.3334C36.6668 34.2539 35.9207 35.0001 35.0002 35.0001H5.00016C4.0797 35.0001 3.3335 34.2539 3.3335 33.3334V10.0001C3.3335 9.07961 4.0797 8.33341 5.00016 8.33341H11.6668ZM33.3335 21.6667H6.66683V31.6667H33.3335V21.6667ZM33.3335 11.6667H6.66683V18.3334H11.6668V15.0001H15.0002V18.3334H25.0002V15.0001H28.3335V18.3334H33.3335V11.6667ZM15.0002 5.00008V8.33341H25.0002V5.00008H15.0002Z" fill="#8E1730"/>
</g>
</svg>
