<svg width="40" height="40" viewBox="0 0 40 40" fill="none" xmlns="http://www.w3.org/2000/svg">
<path d="M8.33333 6.66671H25V13.3334H31.6667V33.3334H8.33333V6.66671ZM6.66417 3.33337C5.74582 3.33337 5 4.07346 5 4.98637V35.0137C5 35.9079 5.74127 36.6667 6.65567 36.6667H33.3443C34.2585 36.6667 35 35.9149 35 34.9875L34.9995 11.6667L26.6667 3.33337H6.66417ZM17.4998 12.5C17.4998 15.1292 16.7403 18.2289 15.4582 21.089C14.1714 23.9595 12.4357 26.417 10.6254 27.8652L12.5911 30.5535C17.4702 27.3007 22.8722 25.0702 28.0975 25.8167L28.8603 22.5855C24.4058 21.1007 20.8332 16.6499 20.8332 12.5H17.4998ZM18.4998 22.4527C18.9455 21.4587 19.3403 20.4272 19.6728 19.3809C20.4588 20.5885 21.4255 21.697 22.5168 22.6589C20.8805 22.9519 19.2775 23.4327 17.7253 24.046C17.9998 23.5239 18.2585 22.9914 18.4998 22.4527Z" fill="#8E1730"/>
</svg>
