<svg width="40" height="40" viewBox="0 0 40 40" fill="none" xmlns="http://www.w3.org/2000/svg">
<path d="M22.5 3.33337C22.5 4.07379 22.1782 4.73902 21.6667 5.19679V8.33337H30C32.7615 8.33337 35 10.572 35 13.3334V30C35 32.7615 32.7615 35 30 35H10C7.23858 35 5 32.7615 5 30V13.3334C5 10.572 7.23858 8.33337 10 8.33337H18.3333V5.19679C17.8218 4.73902 17.5 4.07379 17.5 3.33337C17.5 1.95266 18.6193 0.833374 20 0.833374C21.3807 0.833374 22.5 1.95266 22.5 3.33337ZM10 11.6667C9.07953 11.6667 8.33333 12.4129 8.33333 13.3334V30C8.33333 30.9205 9.07953 31.6667 10 31.6667H30C30.9205 31.6667 31.6667 30.9205 31.6667 30V13.3334C31.6667 12.4129 30.9205 11.6667 30 11.6667H21.6667H18.3333H10ZM3.33333 16.6667H0V26.6667H3.33333V16.6667ZM36.6667 16.6667H40V26.6667H36.6667V16.6667ZM15 24.1667C16.3807 24.1667 17.5 23.0474 17.5 21.6667C17.5 20.286 16.3807 19.1667 15 19.1667C13.6193 19.1667 12.5 20.286 12.5 21.6667C12.5 23.0474 13.6193 24.1667 15 24.1667ZM25 24.1667C26.3807 24.1667 27.5 23.0474 27.5 21.6667C27.5 20.286 26.3807 19.1667 25 19.1667C23.6193 19.1667 22.5 20.286 22.5 21.6667C22.5 23.0474 23.6193 24.1667 25 24.1667Z" fill="#8E1730"/>
</svg>
