<svg width="40" height="40" viewBox="0 0 40 40" fill="none" xmlns="http://www.w3.org/2000/svg">
<g id="Frame">
<path id="Vector" d="M25 6.66659H8.33333V33.3333H31.6667V13.3333H25V6.66659ZM5 4.98625C5 4.07334 5.74582 3.33325 6.66417 3.33325H26.6667L34.9995 11.6666L35 34.9874C35 35.9148 34.2585 36.6666 33.3443 36.6666H6.65567C5.74127 36.6666 5 35.9077 5 35.0136V4.98625ZM22.5483 24.0773C19.9918 25.5873 16.6439 25.2439 14.4473 23.0473C11.8438 20.4438 11.8438 16.2227 14.4473 13.6192C17.0508 11.0157 21.2718 11.0157 23.8753 13.6192C26.072 15.8158 26.4153 19.1638 24.9053 21.7203L28.5895 25.4043L26.2325 27.7614L22.5483 24.0773ZM21.5183 20.6903C22.8202 19.3886 22.8202 17.2779 21.5183 15.9762C20.2167 14.6745 18.1062 14.6745 16.8043 15.9762C15.5026 17.2779 15.5026 19.3886 16.8043 20.6903C18.1062 21.9921 20.2167 21.9921 21.5183 20.6903Z" fill="#8E1730"/>
</g>
</svg>
