<svg width="40" height="40" viewBox="0 0 40 40" fill="none" xmlns="http://www.w3.org/2000/svg">
<g id="Frame">
<path id="Vector" d="M28.3337 15.3333L37.0225 9.25114C37.3995 8.98721 37.9192 9.07891 38.183 9.45596C38.281 9.59603 38.3337 9.76286 38.3337 9.93384V30.0661C38.3337 30.5263 37.9605 30.8995 37.5003 30.8995C37.3293 30.8995 37.1625 30.8468 37.0225 30.7488L28.3337 24.6666V31.6666C28.3337 32.5871 27.5875 33.3333 26.667 33.3333H3.33366C2.41319 33.3333 1.66699 32.5871 1.66699 31.6666V8.33329C1.66699 7.41283 2.41319 6.66663 3.33366 6.66663H26.667C27.5875 6.66663 28.3337 7.41283 28.3337 8.33329V15.3333ZM28.3337 20.5978L35.0003 25.2645V14.7355L28.3337 19.4021V20.5978ZM5.00033 9.99996V30H25.0003V9.99996H5.00033Z" fill="#8E1730"/>
</g>
</svg>
