<svg width="40" height="40" viewBox="0 0 40 40" fill="none" xmlns="http://www.w3.org/2000/svg">
<g id="Frame">
<path id="Vector" d="M20 39.5465L9.3934 28.94C3.53553 23.082 3.53553 13.5846 9.3934 7.72677C15.2513 1.86891 24.7487 1.86891 30.6067 7.72677C36.4645 13.5846 36.4645 23.082 30.6067 28.94L20 39.5465ZM28.2495 26.5829C32.8057 22.0269 32.8057 14.6399 28.2495 10.0838C23.6935 5.52767 16.3065 5.52767 11.7504 10.0838C7.1943 14.6399 7.1943 22.0269 11.7504 26.5829L20 34.8325L28.2495 26.5829ZM20 21.6667C18.159 21.6667 16.6667 20.1744 16.6667 18.3334C16.6667 16.4924 18.159 15 20 15C21.841 15 23.3333 16.4924 23.3333 18.3334C23.3333 20.1744 21.841 21.6667 20 21.6667Z" fill="#8E1730"/>
</g>
</svg>
