<svg width="40" height="40" viewBox="0 0 40 40" fill="none" xmlns="http://www.w3.org/2000/svg">
<path d="M12.0893 30.824L13.2972 31.5284C15.3151 32.705 17.6085 33.3334 20.0017 33.3334C27.3655 33.3334 33.335 27.3639 33.335 20C33.335 12.6362 27.3655 6.66671 20.0017 6.66671C12.6378 6.66671 6.66829 12.6362 6.66829 20C6.66829 22.3939 7.29701 24.688 8.47443 26.7064L9.17839 27.913L8.08924 31.9157L12.0893 30.824ZM3.34193 36.6667L5.59519 28.3859C4.15823 25.9227 3.33496 23.0575 3.33496 20C3.33496 10.7953 10.7969 3.33337 20.0017 3.33337C29.2063 3.33337 36.6683 10.7953 36.6683 20C36.6683 29.2047 29.2063 36.6667 20.0017 36.6667C16.9452 36.6667 14.0808 35.844 11.6181 34.4079L3.34193 36.6667ZM13.9872 12.1806C14.2103 12.1649 14.4342 12.1625 14.6576 12.1734C14.7479 12.1793 14.8377 12.1898 14.9276 12.2002C15.1931 12.2308 15.485 12.3925 15.5831 12.6149C16.0803 13.7423 16.5627 14.8761 17.0303 16.0161C17.1335 16.2677 17.0713 16.5939 16.875 16.9095C16.7753 17.0714 16.6188 17.2984 16.4375 17.5305C16.249 17.7717 15.8433 18.2152 15.8433 18.2152C15.8433 18.2152 15.679 18.4122 15.7409 18.6574C15.765 18.75 15.842 18.885 15.9118 18.9985C15.9504 19.0614 15.9863 19.1175 16.0096 19.1564C16.4361 19.8685 17.0095 20.5905 17.7098 21.2694C17.9105 21.4639 18.1052 21.6624 18.3145 21.8467C19.095 22.5349 19.978 23.0972 20.9317 23.5137L20.9402 23.5175C21.081 23.5782 21.1533 23.6114 21.3595 23.6989C21.4635 23.7429 21.5698 23.7809 21.679 23.8097C21.7185 23.82 21.759 23.8259 21.7997 23.8287C22.0692 23.8449 22.225 23.672 22.2915 23.5925C23.4973 22.1317 23.6077 22.0364 23.616 22.037V22.0397C23.7745 21.8727 24.0237 21.8147 24.246 21.8284C24.3475 21.8345 24.4485 21.854 24.5408 21.8962C25.4272 22.3005 26.8763 22.9312 26.8763 22.9312L27.8455 23.3669C28.0078 23.4452 28.156 23.6297 28.1632 23.809C28.1675 23.9205 28.1795 24.1005 28.1397 24.4299C28.0875 24.861 27.9563 25.3802 27.826 25.6522C27.7343 25.843 27.6157 26.0124 27.4777 26.1557C27.2905 26.35 27.1515 26.468 26.9265 26.6357C26.7895 26.7377 26.7185 26.7857 26.7185 26.7857C26.487 26.9317 26.3565 27.0047 26.0807 27.1515C25.6517 27.38 25.1777 27.5114 24.6922 27.5364C24.3827 27.5522 24.074 27.5745 23.7648 27.5579C23.7512 27.557 22.8178 27.4137 22.8178 27.4137C20.448 26.7904 18.2563 25.6227 16.4172 24.0034C16.0412 23.6724 15.6925 23.3142 15.3366 22.9599C13.8548 21.4847 12.733 19.894 12.0528 18.3894C11.7174 17.6474 11.505 16.8527 11.5016 16.035C11.4955 15.0235 11.8266 14.0387 12.4428 13.2365C12.5643 13.0783 12.6796 12.9143 12.8785 12.7265C13.0891 12.5276 13.2232 12.4208 13.3676 12.3469C13.5601 12.2484 13.7715 12.1957 13.9872 12.1806Z" fill="#8E1730"/>
</svg>
